PathFileType	4	(X/Y/Z)	s11c0203.trc
DataRate	CameraRate	NumFrames	NumMarkers	Units	OrigDataRate	OrigDataStartFrame	OrigNumFrames
200	200	4	48	mm	200	1000	2000
Frame#	Time	racr			lacr			c7			jug			rlel			rdr			llel			ldr			s2			lic			ric			lasi			rasi			rpsi			lpsi			rgt			lgt			rth1			rth2			rth3			rth4			rlfc			rmfc			rsh1			rsh2			rsh3			rsh4			rlmal			rcal			rtoe			rmt5			lth1			lth2			lth4			lth3			llfc			lmfc			llmal			lcal			lmt5			lsh1			lsh2			lsh3			lsh4			ltoe			SBIKE			LBIKE			RBIKE			
		X1	Y1	Z1	X2	Y2	Z2	X3	Y3	Z3	X4	Y4	Z4	X5	Y5	Z5	X6	Y6	Z6	X7	Y7	Z7	X8	Y8	Z8	X9	Y9	Z9	X10	Y10	Z10	X11	Y11	Z11	X12	Y12	Z12	X13	Y13	Z13	X14	Y14	Z14	X15	Y15	Z15	X16	Y16	Z16	X17	Y17	Z17	X18	Y18	Z18	X19	Y19	Z19	X20	Y20	Z20	X21	Y21	Z21	X22	Y22	Z22	X23	Y23	Z23	X24	Y24	Z24	X25	Y25	Z25	X26	Y26	Z26	X27	Y27	Z27	X28	Y28	Z28	X29	Y29	Z29	X30	Y30	Z30	X31	Y31	Z31	X32	Y32	Z32	X33	Y33	Z33	X34	Y34	Z34	X35	Y35	Z35	X36	Y36	Z36	X37	Y37	Z37	X38	Y38	Z38	X39	Y39	Z39	X40	Y40	Z40	X41	Y41	Z41	X42	Y42	Z42	X43	Y43	Z43	X44	Y44	Z44	X45	Y45	Z45	X46	Y46	Z46	X47	Y47	Z47	X48	Y48	Z48	
1000	5.0000	525.947507	1319.816191	-150.211441	460.703088	1350.952507	-457.730392	440.561680	1454.774200	-287.282114	448.198453	1274.286010	-307.685677	567.152270	1121.323816	47.741499	755.157409	964.332998	-76.385024	491.861034	1088.438774	-592.309671	758.195896	955.152148	-455.540507	-105.513425	1192.938137	-212.703302	61.849058	1249.221221	-440.329663	134.259227	1194.525046	-35.728469	110.859176	1174.881357	-409.690708	163.373732	1136.952127	-70.627097	-62.131957	1271.783562	-147.888970	-74.961263	1274.095306	-237.744815	54.800197	1035.148494	-24.796378	12.174071	1129.930478	-447.885279	146.125880	924.045461	-20.680347	221.348070	876.197894	-27.493786	262.093988	801.082583	-45.860619	247.897299	902.200584	-32.759017	330.488409	720.779425	-63.267374	339.137919	712.341488	-190.762370	237.182030	595.042059	-56.728430	200.743507	517.963700	-80.424676	131.384992	465.629209	-84.503811	223.142300	506.050655	-110.704387	38.327340	365.657391	-100.210694	-24.453835	377.926582	-150.279321	212.991582	215.870316	-146.305019	138.872589	224.446455	-77.129657	152.806042	1066.731416	-471.663176	237.382396	1052.833848	-472.047509	253.783343	1083.982950	-460.084957	306.592812	996.217793	-480.662074	434.755725	921.090848	-463.057582	457.609563	908.941396	-333.614577	268.651688	511.593231	-438.827258	207.203232	471.614338	-398.863170	407.705373	407.996407	-460.642030	386.200704	804.470029	-481.092697	379.201709	719.561257	-467.914337	330.475932	646.383985	-459.969048	411.400514	711.742362	-448.028417	502.183834	432.499250	-390.921120	-215.666557	949.755784	-254.175849	-18.056348	81.085595	-460.701572	-17.989571	80.798869	-61.832269	
1001	5.0050	526.193148	1316.689613	-149.219079	460.978088	1350.430596	-457.783261	440.971438	1454.105351	-286.405954	447.883016	1273.372887	-307.413580	566.281867	1118.995637	47.938156	754.585492	964.196945	-75.149720	492.131339	1089.632648	-592.726219	756.770892	955.212820	-456.600117	-105.077836	1191.929236	-211.357304	61.898497	1247.406419	-439.652901	134.168231	1193.967693	-34.344069	110.945365	1172.039724	-409.784454	163.252092	1135.845483	-69.730255	-61.443728	1271.095240	-147.101953	-74.415451	1272.976778	-236.401059	56.422860	1034.527610	-24.629507	11.681113	1127.962982	-446.779959	149.834047	925.393175	-20.822728	226.311732	879.243204	-28.176598	268.341601	804.948702	-46.293714	252.420757	906.037615	-33.113928	337.718644	725.420134	-63.737719	345.091632	716.701262	-191.318387	241.706857	601.513087	-56.775717	203.536119	525.329335	-80.220457	133.054247	474.494778	-84.177157	225.575313	512.863057	-110.485199	37.856379	376.935891	-99.443131	-24.671073	391.275041	-149.225260	208.181436	222.087532	-147.133543	134.778428	232.773768	-77.510556	151.281070	1060.465679	-470.988619	235.493104	1044.399497	-472.125504	252.810583	1075.326329	-460.864077	303.176793	986.006931	-480.534281	429.252532	907.372359	-463.193988	452.962887	895.196015	-334.963152	268.271789	495.486846	-438.438518	207.822784	453.621630	-398.616167	410.915438	398.384442	-460.914720	382.025340	789.393434	-482.045972	376.068397	704.581569	-467.794461	328.312027	630.757795	-459.818890	408.475243	697.082291	-447.738556	504.527134	426.514260	-391.072653	-215.679696	949.682748	-254.239895	-18.066245	81.002218	-460.722405	-18.006481	80.766181	-61.835461	
1002	5.0100	526.190250	1314.626172	-147.547608	461.179735	1350.485274	-457.892094	441.244464	1453.357410	-285.385431	447.930190	1272.743430	-307.042869	564.949949	1116.765467	47.989313	754.012967	964.081065	-74.046435	492.218257	1090.917135	-592.920106	755.181180	955.584904	-457.744812	-104.659002	1190.749670	-210.297165	62.108779	1245.153832	-438.776068	134.068356	1193.014451	-33.847794	111.337891	1169.314401	-410.203216	163.201558	1134.802616	-69.099878	-61.126822	1269.883404	-146.478486	-73.938548	1271.699559	-235.304530	58.208253	1033.953400	-24.485738	11.605656	1125.668087	-445.782679	153.572913	927.156503	-21.134093	231.439075	882.605411	-29.071125	274.950919	809.209883	-46.643728	256.967396	909.798513	-34.076302	345.205213	730.507257	-64.101563	351.107161	721.305686	-191.797583	246.467758	608.513614	-56.835057	206.814487	533.013565	-79.983191	135.404683	483.525217	-83.819717	228.682907	520.041372	-110.228666	38.109566	388.330077	-98.650502	-23.911897	404.519454	-148.006518	203.868420	228.886079	-148.213507	131.408132	241.266875	-78.021699	149.918143	1054.009976	-470.497983	233.663250	1035.782412	-472.237016	251.925007	1066.521772	-461.709879	299.684994	975.480677	-480.342344	423.565841	893.293580	-463.118390	447.847764	881.084090	-336.019904	267.938024	479.519893	-437.441145	208.819988	435.800592	-397.545151	413.592005	388.318744	-461.054309	377.694814	773.833116	-481.785137	372.801304	689.329238	-467.196837	326.003561	614.833332	-459.507739	405.251287	682.354244	-447.320015	506.423055	419.690118	-391.474409	-215.677140	949.642560	-254.247682	-18.100859	81.022591	-460.686214	-18.001825	80.742333	-61.839566	
1003	5.0150	526.052193	1313.591856	-145.572430	461.395069	1351.000267	-457.863071	441.496218	1452.978126	-284.081174	448.302210	1272.277776	-306.358482	563.350111	1114.637289	47.846750	753.357127	964.011783	-73.111802	492.271013	1092.442471	-593.395386	753.602380	955.898457	-458.712359	-104.190537	1189.398861	-209.478182	62.669432	1242.929109	-438.208063	133.881651	1192.088658	-33.427033	111.686445	1166.276325	-410.447896	163.155641	1134.005656	-68.806525	-61.044599	1268.754017	-145.557392	-73.446300	1270.196972	-234.498476	60.100796	1033.521172	-24.408398	11.932566	1123.076466	-445.024684	158.039585	929.741472	-22.209821	236.769130	886.560387	-29.736798	281.976848	813.992392	-46.986168	261.628560	914.241434	-35.192835	352.842070	736.084376	-64.392706	357.325316	726.251984	-192.272165	251.745012	615.781603	-56.928124	210.582561	541.094961	-79.813743	138.249688	492.961468	-83.474592	232.249138	527.480287	-109.978013	39.070921	399.890166	-97.987877	-22.319343	418.040935	-146.982528	200.119575	235.589167	-149.182851	128.548031	250.124223	-78.458400	148.684896	1047.473974	-470.106669	231.894030	1027.018554	-472.397036	251.118306	1057.386978	-462.637149	296.239624	964.814783	-480.006836	417.698105	878.589164	-462.360996	442.310540	866.789024	-336.785962	267.697039	463.848898	-435.993274	210.200816	418.707132	-395.976579	415.825205	377.991213	-461.103301	373.111698	758.193277	-481.363200	369.375500	673.714664	-466.139664	323.722019	598.706652	-458.668870	401.580038	667.207914	-446.215202	507.925579	411.799423	-391.671337	-215.672536	949.596719	-254.178044	-18.124173	80.964807	-460.690205	-18.014796	80.718367	-61.835686	
